<svg width="800" height="800" viewBox="0 0 800 800" fill="none" xmlns="http://www.w3.org/2000/svg">
<g clip-path="url(#clip0_1606_2806)">
<path d="M660.647 301.031C663.288 298.416 666.916 296.788 670.917 296.788C678.946 296.788 685.455 303.298 685.455 311.329C685.455 319.36 678.946 325.87 670.917 325.87C662.888 325.87 656.379 319.36 656.379 311.329C656.379 307.327 658.006 303.698 660.62 301.057L660.647 301.031ZM382.661 77.3187C387.009 72.7564 393.118 69.9016 399.92 69.9016C413.071 69.9016 423.715 80.5469 423.715 93.7002C423.715 106.853 413.071 117.499 399.92 117.499C388.903 117.499 379.647 110.028 376.926 99.8633L376.899 99.7032C376.419 97.8889 376.125 95.8346 376.125 93.7002C376.125 87.3503 378.606 81.5875 382.661 77.3187ZM692.711 397.345C692.711 404.629 692.444 411.886 691.911 419.063H661.901C658.913 419.063 657.686 421.01 657.686 423.999V437.766C657.686 470.208 639.386 477.252 623.354 479.04C608.096 480.774 591.184 472.663 589.103 463.325C586.729 429.575 568.483 400.547 541.834 383.445L541.434 383.205C573.605 367.384 596.439 336.888 601.347 300.684L601.4 300.123C600.093 267.334 582.194 239.026 555.919 223.178L555.492 222.938C537.699 211.252 516.225 203.755 493.098 202.314L492.724 202.288H182.487C224.341 155.624 280.6 122.595 344.221 110.242L346.062 109.948L382.634 148.314C386.582 152.45 392.131 155.038 398.293 155.038C404.108 155.038 409.363 152.743 413.258 149.008L454.151 109.868C540.393 126.463 611.884 179.05 653.551 251.032L654.298 252.446L626.289 315.731C625.115 318.319 624.448 321.334 624.448 324.509C624.448 333.287 629.65 340.864 637.172 344.305L637.306 344.359L691.244 368.317C692.177 377.896 692.658 387.554 692.658 397.372L692.711 397.345ZM334.111 347.801V292.76H432.784C437.879 292.76 468.77 298.656 468.77 321.761C468.77 340.944 445.082 347.827 425.609 347.827L334.111 347.801ZM109.61 365.916L160.774 343.158C168.429 339.69 173.658 332.139 173.658 323.362C173.658 320.16 172.964 317.145 171.737 314.424L171.791 314.557L161.254 290.732H202.708V477.519H119.106C112.011 453.533 107.956 426 107.956 397.479C107.956 386.353 108.57 375.361 109.797 364.556L109.663 365.89L109.61 365.916ZM137.459 299.857C137.459 291.986 131.084 285.609 123.214 285.609C115.345 285.609 108.97 291.986 108.97 299.857C108.97 307.727 115.345 314.104 123.214 314.104C131.084 314.104 137.459 307.727 137.459 299.857ZM228.103 667.507C226.476 667.907 224.635 668.121 222.714 668.121C209.563 668.121 198.92 657.475 198.92 644.322C198.92 631.169 209.563 620.524 222.714 620.524C235.865 620.524 246.509 631.169 246.509 644.322C246.509 646.883 246.109 649.365 245.362 651.686L245.415 651.526C242.828 659.53 236.345 665.559 228.263 667.507H228.103ZM558.586 591.496C557.226 591.176 555.652 591.016 554.025 591.016C543.675 591.016 535.005 598.299 532.898 608.037L532.871 608.171L520.947 663.799C485.495 680.207 444.015 689.785 400.293 689.785C355.612 689.785 313.251 679.78 275.345 661.878L277.132 662.625L265.208 606.997C263.074 597.152 254.431 589.868 244.081 589.868C242.454 589.868 240.88 590.055 239.36 590.375L239.493 590.349L190.383 600.887C181.527 591.789 173.204 582.024 165.549 571.726L164.988 570.952H403.921C406.616 570.952 408.429 570.472 408.429 568.017V483.468C408.429 481.014 406.642 480.534 403.921 480.534H334.031V426.933H409.63C433.131 427.174 452.497 444.436 456.072 466.953L456.099 467.22C459.113 478.986 465.675 517.379 470.21 529.652C474.692 543.418 492.991 570.925 512.491 570.925H631.544C633.091 570.899 634.585 570.739 636.025 570.472L635.865 570.499C627.169 582.238 618.313 592.59 608.763 602.301L608.79 602.274L558.586 591.496ZM570.003 668.654C600.147 668.654 624.582 644.189 624.582 614.04C624.582 583.892 600.147 559.426 569.977 559.426C539.807 559.426 515.372 583.865 515.372 614.04C515.372 644.189 539.807 668.628 569.95 668.654H570.003ZM794.718 390.088L761.134 369.305C760.849 366.032 760.538 362.768 760.2 359.513L789.063 332.62C791.304 330.512 792.691 327.497 792.691 324.189C792.691 319.28 789.623 315.064 785.302 313.357L785.222 313.33L748.329 299.536C747.422 296.353 746.453 293.178 745.422 290.012L768.443 258.049C769.803 256.181 770.63 253.834 770.63 251.299C770.63 245.563 766.469 240.814 761 239.907H760.92L722.027 233.583C720.516 230.649 718.951 227.732 717.332 224.832L733.658 188.948C734.325 187.534 734.698 185.906 734.698 184.145C734.698 181.744 733.978 179.53 732.698 177.689L732.724 177.716C730.617 174.594 727.069 172.566 723.068 172.566C722.934 172.566 722.801 172.566 722.668 172.566H722.694L683.214 173.954C681.187 171.392 679.106 168.876 676.972 166.403L686.042 127.957C686.229 127.157 686.335 126.25 686.335 125.316C686.335 118.913 681.16 113.737 674.758 113.737C673.825 113.737 672.918 113.844 672.037 114.057L672.117 114.03L633.678 123.102C631.17 120.985 628.636 118.904 626.075 116.858L627.462 77.372C627.462 77.2119 627.462 77.0252 627.462 76.8117C627.462 70.4619 622.314 65.3393 615.992 65.3393C614.231 65.3393 612.551 65.7395 611.057 66.4599L611.137 66.4332L575.258 82.8147C572.351 81.2406 569.443 79.6398 566.509 78.1191L560.16 39.1929C559.2 33.6702 554.425 29.5348 548.716 29.5348C546.209 29.5348 543.861 30.3352 541.967 31.6958L541.994 31.6692L510.01 54.694C506.862 53.6802 503.688 52.7286 500.487 51.8393L486.696 14.9408C484.988 10.5386 480.774 7.4704 475.839 7.4704C472.531 7.4704 469.543 8.85776 467.409 11.0989L440.52 39.9933C437.266 39.6198 434.002 39.3085 430.73 39.0595L409.95 5.4694C407.869 2.16108 404.268 0 400.133 0C395.999 0 392.371 2.16108 390.343 5.44272L390.317 5.49608L369.537 39.0862C366.264 39.3708 363.001 39.6821 359.747 40.02L332.804 11.1256C330.697 8.85776 327.683 7.44372 324.348 7.44372C319.413 7.44372 315.198 10.5386 313.545 14.8874L313.518 14.9675L299.727 51.8659C296.526 52.773 293.378 53.7602 290.203 54.7207L258.246 31.6958C256.379 30.3618 254.058 29.5614 251.524 29.5614C245.789 29.5614 241.04 33.6968 240.08 39.1663V39.2463L233.731 78.1724C230.797 79.6843 227.88 81.2495 224.982 82.8681L189.103 66.4866C187.689 65.8196 186.035 65.4461 184.301 65.4461C177.926 65.4461 172.751 70.622 172.751 76.9985C172.751 77.1586 172.751 77.3187 172.751 77.4521L174.138 116.912C171.577 118.939 169.043 121.021 166.536 123.155L128.096 114.057C127.296 113.87 126.389 113.764 125.455 113.764C119.053 113.764 113.878 118.939 113.878 125.343C113.878 126.276 113.985 127.184 114.198 128.064L114.171 127.984L123.214 166.43C121.134 168.938 119.026 171.472 116.999 173.98L77.5192 172.593C77.3858 172.593 77.2257 172.593 77.0657 172.593C70.6902 172.593 65.5152 177.769 65.5152 184.145C65.5152 185.88 65.8886 187.534 66.5822 189.028L66.5555 188.948L82.9343 224.832C81.316 227.714 79.751 230.631 78.2394 233.583L39.3731 239.907C33.8513 240.867 29.7166 245.616 29.7166 251.352C29.7166 253.86 30.5168 256.208 31.8773 258.102L31.8506 258.076L54.8716 290.038C53.8757 293.204 52.9065 296.379 51.964 299.563L15.0717 313.357C10.6702 315.064 7.60253 319.28 7.60253 324.215C7.60253 327.524 8.98967 330.512 11.2037 332.646L40.0667 359.54C39.6932 362.795 39.382 366.059 39.133 369.331L5.54852 390.115C2.21407 392.169 0 395.798 0 399.933C0 404.069 2.1874 407.724 5.49516 409.725L5.54852 409.752L39.133 430.535C39.3998 433.817 39.7466 437.072 40.0667 440.327L11.2037 467.274C8.93631 469.381 7.52251 472.396 7.52251 475.731C7.52251 480.667 10.6169 484.882 14.965 486.537L15.045 486.563L51.9373 500.357C52.8443 503.558 53.8313 506.733 54.8449 509.882L31.8239 541.844C30.4368 543.712 29.6099 546.086 29.6099 548.621C29.6099 554.357 33.8246 559.133 39.3198 559.987H39.3731L78.2394 566.31C79.7599 569.245 81.3071 572.153 82.9343 575.061L66.5555 610.945C65.8886 612.36 65.5152 614.014 65.5152 615.748C65.5152 622.124 70.6902 627.3 77.0657 627.3C77.2257 627.3 77.3858 627.3 77.5192 627.3H77.4925L116.946 625.913C119 628.474 121.054 631.009 123.188 633.517L114.145 671.989C113.958 672.79 113.851 673.697 113.851 674.631C113.851 681.007 119.026 686.183 125.402 686.183C126.362 686.183 127.269 686.076 128.149 685.863L128.069 685.89L166.509 676.845C169.016 678.98 171.551 681.034 174.111 683.062L172.724 722.548C172.724 722.708 172.724 722.868 172.724 723.055C172.724 729.405 177.873 734.527 184.195 734.527C185.955 734.527 187.636 734.127 189.13 733.407L189.05 733.433L224.928 717.105C227.836 718.733 230.744 720.28 233.678 721.801L240.027 760.674C240.987 766.196 245.735 770.359 251.47 770.359C253.978 770.359 256.299 769.558 258.219 768.197L258.193 768.224L290.15 745.199C293.316 746.213 296.49 747.182 299.673 748.107L313.464 785.006C315.118 789.461 319.333 792.556 324.268 792.556C327.603 792.556 330.617 791.142 332.724 788.848L359.667 759.98C362.894 760.354 366.175 760.647 369.456 760.967L390.237 794.557C392.317 797.839 395.945 800 400.053 800C404.161 800 407.789 797.839 409.843 794.584L409.87 794.531L430.65 760.94C433.931 760.647 437.186 760.327 440.44 759.953L467.329 788.821C469.436 791.062 472.451 792.45 475.759 792.45C480.667 792.45 484.882 789.381 486.589 785.059L486.616 784.979L500.407 748.081C503.59 747.174 506.764 746.204 509.93 745.173L541.887 768.197C543.755 769.585 546.129 770.412 548.663 770.412C554.398 770.412 559.173 766.196 560.027 760.7V760.647L566.375 721.774C569.31 720.253 572.217 718.679 575.125 717.079L611.004 733.407C612.391 734.047 614.045 734.421 615.779 734.421C622.181 734.421 627.356 729.245 627.356 722.841C627.356 722.708 627.356 722.601 627.356 722.468L625.969 683.008C628.529 680.998 631.046 678.926 633.518 676.792L671.957 685.836C672.758 686.023 673.665 686.13 674.572 686.13C680.974 686.13 686.149 680.954 686.149 674.551C686.149 673.617 686.042 672.736 685.829 671.883L685.855 671.963L676.812 633.49C678.893 630.982 681 628.474 683.028 625.886L722.508 627.274C722.668 627.274 722.854 627.274 723.041 627.274C729.39 627.274 734.511 622.124 734.511 615.801C734.511 614.04 734.111 612.359 733.391 610.865L733.418 610.945L717.092 575.061C718.666 572.153 720.267 569.245 721.787 566.31L760.654 559.987C766.175 559.026 770.31 554.25 770.31 548.541C770.31 546.033 769.51 543.685 768.149 541.791L768.176 541.818L745.155 509.855L748.063 500.33L784.955 486.537C789.383 484.856 792.477 480.64 792.477 475.705C792.477 472.37 791.064 469.355 788.796 467.247L759.933 440.3C760.28 437.072 760.6 433.79 760.867 430.509L794.451 409.725C797.786 407.67 800 404.042 800 399.907C800 395.771 797.813 392.143 794.505 390.115L794.451 390.088H794.718Z" fill="#FF7043"/>
</g>
<defs>
<clipPath id="clip0_1606_2806">
<rect width="800" height="800" fill="white"/>
</clipPath>
</defs>
</svg>
