<svg width="800" height="800" viewBox="0 0 800 800" fill="none" xmlns="http://www.w3.org/2000/svg">
<path d="M400 190.625C620.914 190.625 800 283.848 800 398.844C800 513.84 620.914 607.062 400 607.062C179.086 607.062 1.58463e-05 513.84 0 398.844C0 283.848 179.086 190.625 400 190.625ZM156.166 300.211L112.328 522.13H164.385L175.344 464.596H224.653C271.231 467.336 323.284 428.98 323.284 363.227C323.284 324.867 301.366 302.952 257.531 300.211H156.166ZM523.287 300.211L479.453 522.13H531.506L542.466 464.596H591.781C638.356 467.336 690.412 428.98 690.412 363.227C690.412 324.867 668.494 302.952 624.656 300.211H523.287ZM356.935 242.68L313.1 464.596H365.156L389.812 341.308H430.909C450.084 341.308 450.084 349.527 447.347 363.227L428.169 464.596H482.963L502.141 352.268C507.619 324.868 491.181 302.952 447.344 300.211H398.031L408.99 242.68H356.935ZM235.615 341.308C254.793 341.308 268.49 349.526 268.49 365.964C265.753 412.542 243.834 420.761 219.178 423.502H186.3L200 341.308H235.615ZM602.74 341.308C621.918 341.308 635.615 349.526 635.615 365.964C632.878 412.542 610.959 420.761 586.303 423.502H553.422L567.122 341.308H602.74Z" fill="white"/>
</svg>
