<svg width="800" height="800" viewBox="0 0 800 800" fill="none" xmlns="http://www.w3.org/2000/svg">
<path d="M136.5 701C126.554 701 117.016 697.049 109.983 690.017C102.951 682.984 99 673.446 99 663.5V463.5C99 453.554 102.951 444.016 109.983 436.983C117.016 429.951 126.554 426 136.5 426C146.446 426 155.984 429.951 163.017 436.983C170.049 444.016 174 453.554 174 463.5V573L310 437C313.433 433.316 317.573 430.36 322.173 428.311C326.773 426.261 331.739 425.159 336.774 425.07C341.809 424.982 346.811 425.908 351.481 427.794C356.15 429.68 360.391 432.487 363.952 436.048C367.513 439.609 370.32 443.851 372.206 448.521C374.092 453.19 375.018 458.191 374.93 463.226C374.841 468.261 373.739 473.227 371.689 477.827C369.64 482.427 366.684 486.567 363 490L227 626H336.5C346.446 626 355.984 629.951 363.017 636.983C370.049 644.016 374 653.554 374 663.5C374 673.446 370.049 682.984 363.017 690.017C355.984 697.049 346.446 701 336.5 701H136.5Z" fill="black"/>
<path d="M664.5 375C654.554 375 645.016 371.049 637.983 364.017C630.951 356.984 627 347.446 627 337.5V228L491 364C483.891 370.624 474.489 374.23 464.774 374.059C455.059 373.887 445.79 369.952 438.919 363.081C432.048 356.211 428.113 346.941 427.941 337.227C427.77 327.512 431.376 318.109 438 311L574 175H464.5C454.554 175 445.016 171.049 437.983 164.017C430.951 156.984 427 147.446 427 137.5C427 127.554 430.951 118.016 437.983 110.983C445.016 103.951 454.554 100 464.5 100H664.5C685.2 100 702 116.8 702 137.5V337.5C702 347.446 698.049 356.984 691.017 364.017C683.984 371.049 674.446 375 664.5 375Z" fill="black"/>
</svg>
