<svg width="512" height="512" viewBox="0 0 512 512" fill="none" xmlns="http://www.w3.org/2000/svg">
<rect width="512" height="512" rx="256" fill="#B6A995"/>
<path d="M235.527 169.087L261.142 307.12L291.213 153.6H382.486C398.473 153.6 410.916 157.421 419.814 165.063C430.07 173.882 435.199 187.402 435.199 205.626C435.199 222.38 429.844 234.873 419.136 243.104C417.476 244.279 411.293 247.146 400.585 251.701C412.197 255.522 419.06 258.167 421.172 259.637C433.087 268.308 439.045 282.931 439.045 303.507C439.045 324.523 431.805 339.441 417.326 348.259C406.165 355.019 390.178 358.399 369.364 358.399H296.969V338.403L291.529 358.399H227.905L184.856 194.56H174.088V358.399H133.128V194.56H71.6875V153.6H235.527V169.087ZM341.085 326.214H364.387C374.19 326.214 381.355 324.376 385.88 320.702C391.762 315.999 394.702 307.695 394.702 295.791C394.702 288.59 392.817 282.344 389.047 277.053C384.824 271.174 379.318 268.234 372.531 268.234H341.085V326.214ZM341.085 236.931H370.495C376.981 236.931 382.336 234.359 386.559 229.215C390.932 223.924 393.119 217.824 393.119 210.917C393.119 202.981 391.083 196.808 387.011 192.399C382.335 187.256 375.171 184.684 365.519 184.684H341.085V236.931Z" fill="#392E1E"/>
</svg>
