<svg width="32" height="32" viewBox="0 0 32 32" fill="none" xmlns="http://www.w3.org/2000/svg">
<rect width="32" height="32" rx="16" fill="#B6A995"/>
<path d="M14.7207 10.5677L16.3213 19.1947L18.2012 9.59998H23.9053C24.9045 9.59998 25.6821 9.83913 26.2383 10.3168C26.8792 10.8679 27.2002 11.713 27.2002 12.8519C27.2001 13.8988 26.8653 14.6794 26.1963 15.1937C26.0926 15.2672 25.7054 15.4461 25.0361 15.7308C25.7616 15.9695 26.191 16.135 26.3232 16.2269C27.0679 16.7689 27.4404 17.6832 27.4404 18.9691C27.4404 20.2826 26.9878 21.2148 26.083 21.766C25.3854 22.1885 24.3858 22.3998 23.085 22.3998H18.5605V21.1498L18.2207 22.3998H14.2441L11.5537 12.1595H10.8809V22.3998H8.32031V12.1595H4.48047V9.59998H14.7207V10.5677ZM21.3174 20.3881H22.7744C23.3868 20.388 23.8344 20.2737 24.1172 20.0443C24.4848 19.7504 24.6689 19.2307 24.6689 18.4867C24.6689 18.0367 24.551 17.6464 24.3154 17.3158C24.0515 16.9484 23.7074 16.765 23.2832 16.765H21.3174V20.3881ZM21.3174 14.808H23.1562C23.5615 14.8079 23.8963 14.647 24.1602 14.3256C24.4333 13.995 24.5703 13.6136 24.5703 13.182C24.5703 12.6862 24.4429 12.3003 24.1885 12.0248C23.8963 11.7033 23.448 11.5424 22.8447 11.5424H21.3174V14.808Z" fill="#392E1E"/>
</svg>
