<svg width="256" height="256" viewBox="0 0 256 256" fill="none" xmlns="http://www.w3.org/2000/svg">
<rect width="256" height="256" rx="128" fill="#B6A995"/>
<path d="M117.764 84.5449L130.571 153.561L145.606 76.7998H191.243C199.237 76.7998 205.458 78.7103 209.907 82.5312C215.035 86.9403 217.6 93.7015 217.6 102.813C217.6 111.19 214.922 117.437 209.568 121.552C208.739 122.14 205.646 123.573 200.292 125.851C206.098 127.761 209.53 129.083 210.586 129.818C216.543 134.154 219.522 141.466 219.522 151.754C219.522 162.262 215.903 169.721 208.663 174.13C203.083 177.51 195.088 179.2 184.682 179.2H148.484V169.201L145.765 179.2H113.952L92.4277 97.2803H87.0439V179.2H66.5635V97.2803H35.8438V76.7998H117.764V84.5449ZM170.542 163.106H182.193C187.095 163.106 190.677 162.188 192.939 160.352C195.881 158 197.352 153.848 197.352 147.896C197.352 144.295 196.409 141.172 194.523 138.526C192.412 135.587 189.659 134.117 186.266 134.117H170.542V163.106ZM170.542 118.465H185.248C188.491 118.465 191.168 117.179 193.279 114.607C195.466 111.962 196.559 108.913 196.56 105.459C196.56 101.491 195.541 98.4037 193.505 96.1992C191.167 93.6276 187.585 92.3418 182.759 92.3418H170.542V118.465Z" fill="#392E1E"/>
</svg>
