<svg width="64" height="64" viewBox="0 0 64 64" fill="none" xmlns="http://www.w3.org/2000/svg">
<rect width="64" height="64" rx="32" fill="#B6A995"/>
<path d="M29.4414 21.1365L32.6426 38.3904L36.4014 19.2H47.8105C49.8088 19.2 51.3643 19.6775 52.4766 20.6326C53.7585 21.7348 54.3993 23.4251 54.3994 25.7029C54.3994 27.7972 53.7302 29.3587 52.3916 30.3875C52.1841 30.5344 51.4116 30.8932 50.0732 31.4626C51.5248 31.9403 52.3826 32.2711 52.6465 32.4548C54.1358 33.5387 54.8808 35.3664 54.8809 37.9382C54.8809 40.5651 53.9757 42.4297 52.166 43.532C50.771 44.377 48.7724 44.7995 46.1709 44.7996H37.1211V42.3005L36.4414 44.7996H28.4883L23.1074 24.3201H21.7607V44.7996H16.6406V24.3201H8.96094V19.2H29.4414V21.1365ZM42.6357 40.7771H45.5488C46.774 40.777 47.6698 40.5469 48.2354 40.0876C48.9703 39.4998 49.3378 38.4619 49.3379 36.9744C49.3379 36.0742 49.1022 35.2929 48.6309 34.6316C48.103 33.8968 47.4148 33.5291 46.5664 33.5291H42.6357V40.7771ZM42.6357 29.616H46.3115C47.122 29.616 47.7915 29.2948 48.3193 28.6521C48.866 27.9908 49.1396 27.2283 49.1396 26.365C49.1396 25.373 48.885 24.6007 48.376 24.0496C47.7915 23.4068 46.8958 23.0857 45.6895 23.0857H42.6357V29.616Z" fill="#392E1E"/>
</svg>
