<svg width="16" height="16" viewBox="0 0 16 16" fill="none" xmlns="http://www.w3.org/2000/svg">
<rect width="16" height="16" rx="8" fill="#B6A995"/>
<path d="M7.36035 5.28827L8.16016 9.59784L9.09961 4.79999H11.9521C12.4518 4.79999 12.8411 4.91956 13.1191 5.15839C13.4395 5.43396 13.5996 5.85658 13.5996 6.42596C13.5996 6.94946 13.4323 7.33969 13.0977 7.59686C13.0458 7.63361 12.8522 7.72304 12.5176 7.86542C12.8801 7.98469 13.0949 8.0675 13.1611 8.11346C13.5335 8.38443 13.7197 8.84159 13.7197 9.48456C13.7197 10.1413 13.4935 10.6074 13.041 10.883C12.6922 11.0942 12.1924 11.2004 11.542 11.2004H9.28027V10.5715L9.10938 11.2004H7.12207L5.77637 6.08026H5.44043V11.2004H4.16016V6.08026H2.24023V4.79999H7.36035V5.28827ZM10.6582 10.1945H11.3867C11.6931 10.1945 11.9172 10.1365 12.0586 10.0217C12.2423 9.87467 12.334 9.61522 12.334 9.24335C12.334 9.01835 12.275 8.82272 12.1572 8.65741C12.0253 8.47405 11.8534 8.3821 11.6416 8.38202H10.6582V10.1945ZM10.6582 7.40448H11.5781C11.7806 7.40437 11.9482 7.32391 12.0801 7.16327C12.2168 6.99793 12.2852 6.80686 12.2852 6.591C12.2851 6.34318 12.2209 6.15062 12.0938 6.01288C11.9476 5.85213 11.7235 5.77167 11.4219 5.77167H10.6582V7.40448Z" fill="#392E1E"/>
</svg>
