<svg width="128" height="128" viewBox="0 0 128 128" fill="none" xmlns="http://www.w3.org/2000/svg">
<rect width="128" height="128" rx="64" fill="#B6A995"/>
<path d="M58.8818 42.2729L65.2852 76.7798L72.8027 38.3999H95.6211C99.6179 38.3999 102.729 39.3555 104.954 41.2661C107.518 43.4706 108.8 46.851 108.8 51.4067C108.8 55.5952 107.461 58.7184 104.784 60.7759C104.369 61.0698 102.823 61.7863 100.146 62.9253C103.05 63.8805 104.765 64.5423 105.293 64.9097C108.272 67.0774 109.761 70.7328 109.761 75.8765C109.761 81.1305 107.952 84.8604 104.332 87.0649C101.542 88.7551 97.5442 89.6001 92.3408 89.6001H74.2422V84.6021L72.8828 89.6001H56.9766L46.2139 48.6401H43.5215V89.6001H33.2822V48.6401H17.9219V38.3999H58.8818V42.2729ZM85.2715 81.5532H91.0967C93.5476 81.5532 95.3385 81.0938 96.4697 80.1753C97.9402 78.9995 98.6758 76.9238 98.6758 73.9478C98.6758 72.1474 98.2044 70.5859 97.2617 69.2632C96.206 67.7935 94.8296 67.0591 93.1328 67.0591H85.2715V81.5532ZM85.2715 59.2329H92.624C94.2453 59.2329 95.5839 58.5891 96.6396 57.3032C97.7329 55.9806 98.2793 54.4557 98.2793 52.729C98.2792 50.7453 97.7708 49.2023 96.7529 48.1001C95.5841 46.8142 93.7929 46.1705 91.3799 46.1704H85.2715V59.2329Z" fill="#392E1E"/>
</svg>
