<svg width="8" height="8" viewBox="0 0 8 8" fill="none" xmlns="http://www.w3.org/2000/svg">
<rect width="8" height="8" rx="4" fill="#B6A995"/>
<path d="M3.67969 2.64124L4.08008 4.79846L4.5498 2.40002H5.97656C6.22613 2.40006 6.42058 2.45948 6.55957 2.57874C6.71975 2.71646 6.79973 2.92797 6.7998 3.21252C6.7998 3.47431 6.71615 3.66986 6.54883 3.79846C6.52275 3.81688 6.42589 3.86213 6.25879 3.93323C6.44025 3.99293 6.54806 4.03429 6.58105 4.05725C6.7669 4.1927 6.86026 4.42078 6.86035 4.74182C6.86035 5.0702 6.74674 5.30423 6.52051 5.44202C6.34616 5.54748 6.09639 5.6002 5.77148 5.60022H4.64062V5.28381L4.55469 5.60022H3.56055L2.88867 3.03967H2.71973V5.60022H2.08008V3.03967H1.12012V2.40002H3.67969V2.64124ZM5.3291 5.09729H5.69336C5.84638 5.09729 5.95859 5.06864 6.0293 5.01135C6.12121 4.93787 6.16699 4.80771 6.16699 4.6217C6.16699 4.5092 6.13801 4.4114 6.0791 4.32874C6.01322 4.23704 5.92711 4.19118 5.82129 4.19104H5.3291V5.09729ZM5.3291 3.70178H5.78906C5.89033 3.70176 5.97408 3.66197 6.04004 3.58167C6.10838 3.499 6.14258 3.40346 6.14258 3.29553C6.14257 3.17158 6.11047 3.07535 6.04688 3.00647C5.97382 2.9261 5.86176 2.88538 5.71094 2.88538H5.3291V3.70178Z" fill="#392E1E"/>
</svg>
